<svg xmlns="http://www.w3.org/2000/svg" xmlns:xlink="http://www.w3.org/1999/xlink" width="55" height="55" x="0" y="0" viewBox="0 0 480 480" style="enable-background:new 0 0 512 512" xml:space="preserve" class=""><g><linearGradient id="a" x1="-48.697" x2="10.335" y1="573.625" y2="573.625" gradientTransform="matrix(8 0 0 -8 399 4941)" gradientUnits="userSpaceOnUse"><stop offset="0" style="stop-color:#4761AC" stop-color="#4761ac"></stop><stop offset="1" style="stop-color:#54C2EF" stop-color="#54c2ef"></stop></linearGradient><path d="M144 360h16a8 8 0 0 0 0-16h-16a8 8 0 0 0 0 16z" style="fill:url(#a);" fill=""></path><linearGradient id="b" x1="-48.697" x2="10.335" y1="573.625" y2="573.625" gradientTransform="matrix(8 0 0 -8 399 4941)" gradientUnits="userSpaceOnUse"><stop offset="0" style="stop-color:#4761AC" stop-color="#4761ac"></stop><stop offset="1" style="stop-color:#54C2EF" stop-color="#54c2ef"></stop></linearGradient><path d="M384 344H192a8 8 0 0 0 0 16h192a8 8 0 0 0 0-16z" style="fill:url(#b);" fill=""></path><linearGradient id="c" x1="-48.697" x2="10.335" y1="579.625" y2="579.625" gradientTransform="matrix(8 0 0 -8 399 4941)" gradientUnits="userSpaceOnUse"><stop offset="0" style="stop-color:#4761AC" stop-color="#4761ac"></stop><stop offset="1" style="stop-color:#54C2EF" stop-color="#54c2ef"></stop></linearGradient><path d="M144 312h16a8 8 0 0 0 0-16h-16a8 8 0 0 0 0 16z" style="fill:url(#c);" fill=""></path><linearGradient id="d" x1="-48.697" x2="10.335" y1="579.625" y2="579.625" gradientTransform="matrix(8 0 0 -8 399 4941)" gradientUnits="userSpaceOnUse"><stop offset="0" style="stop-color:#4761AC" stop-color="#4761ac"></stop><stop offset="1" style="stop-color:#54C2EF" stop-color="#54c2ef"></stop></linearGradient><path d="M384 296H192a8 8 0 0 0 0 16h192a8 8 0 0 0 0-16z" style="fill:url(#d);" fill=""></path><linearGradient id="e" x1="-48.697" x2="10.335" y1="585.625" y2="585.625" gradientTransform="matrix(8 0 0 -8 399 4941)" gradientUnits="userSpaceOnUse"><stop offset="0" style="stop-color:#4761AC" stop-color="#4761ac"></stop><stop offset="1" style="stop-color:#54C2EF" stop-color="#54c2ef"></stop></linearGradient><path d="M144 264h16a8 8 0 0 0 0-16h-16a8 8 0 0 0 0 16z" style="fill:url(#e);" fill=""></path><linearGradient id="f" x1="-48.697" x2="10.335" y1="585.625" y2="585.625" gradientTransform="matrix(8 0 0 -8 399 4941)" gradientUnits="userSpaceOnUse"><stop offset="0" style="stop-color:#4761AC" stop-color="#4761ac"></stop><stop offset="1" style="stop-color:#54C2EF" stop-color="#54c2ef"></stop></linearGradient><path d="M384 248H192a8 8 0 0 0 0 16h192a8 8 0 0 0 0-16z" style="fill:url(#f);" fill=""></path><linearGradient id="g" x1="-48.697" x2="10.335" y1="591.625" y2="591.625" gradientTransform="matrix(8 0 0 -8 399 4941)" gradientUnits="userSpaceOnUse"><stop offset="0" style="stop-color:#4761AC" stop-color="#4761ac"></stop><stop offset="1" style="stop-color:#54C2EF" stop-color="#54c2ef"></stop></linearGradient><path d="M144 216h16a8 8 0 0 0 0-16h-16a8 8 0 0 0 0 16z" style="fill:url(#g);" fill=""></path><linearGradient id="h" x1="-48.697" x2="10.335" y1="591.625" y2="591.625" gradientTransform="matrix(8 0 0 -8 399 4941)" gradientUnits="userSpaceOnUse"><stop offset="0" style="stop-color:#4761AC" stop-color="#4761ac"></stop><stop offset="1" style="stop-color:#54C2EF" stop-color="#54c2ef"></stop></linearGradient><path d="M384 200H192a8 8 0 0 0 0 16h192a8 8 0 0 0 0-16z" style="fill:url(#h);" fill=""></path><linearGradient id="i" x1="-48.697" x2="10.335" y1="597.625" y2="597.625" gradientTransform="matrix(8 0 0 -8 399 4941)" gradientUnits="userSpaceOnUse"><stop offset="0" style="stop-color:#4761AC" stop-color="#4761ac"></stop><stop offset="1" style="stop-color:#54C2EF" stop-color="#54c2ef"></stop></linearGradient><path d="M144 168h16a8 8 0 0 0 0-16h-16a8 8 0 0 0 0 16z" style="fill:url(#i);" fill=""></path><linearGradient id="j" x1="-48.697" x2="10.335" y1="597.625" y2="597.625" gradientTransform="matrix(8 0 0 -8 399 4941)" gradientUnits="userSpaceOnUse"><stop offset="0" style="stop-color:#4761AC" stop-color="#4761ac"></stop><stop offset="1" style="stop-color:#54C2EF" stop-color="#54c2ef"></stop></linearGradient><path d="M184 160a8 8 0 0 0 8 8h192a8 8 0 0 0 0-16H192a8 8 0 0 0-8 8z" style="fill:url(#j);" fill=""></path><linearGradient id="k" x1="-48.697" x2="10.335" y1="587.625" y2="587.625" gradientTransform="matrix(8 0 0 -8 399 4941)" gradientUnits="userSpaceOnUse"><stop offset="0" style="stop-color:#4761AC" stop-color="#4761ac"></stop><stop offset="1" style="stop-color:#54C2EF" stop-color="#54c2ef"></stop></linearGradient><path d="M48 480h336a8 8 0 0 0 8-8v-40h40a8 8 0 0 0 8-8V120c0-.176-.088-.328-.104-.504a7.557 7.557 0 0 0-.408-2.056c-.088-.256-.152-.504-.264-.752a7.998 7.998 0 0 0-1.6-2.344l-112-112a7.998 7.998 0 0 0-2.344-1.6c-.248-.112-.496-.176-.744-.264a7.967 7.967 0 0 0-2.072-.416C320.328.088 320.176 0 320 0H96a8 8 0 0 0-8 8v24H48a8 8 0 0 0-8 8v432a8 8 0 0 0 8 8zm364.688-368H328V27.312L412.688 112zM104 16h208v104a8 8 0 0 0 8 8h104v288H104V16zM56 48h32v376a8 8 0 0 0 8 8h280v32H56V48z" style="fill:url(#k);" fill=""></path><linearGradient id="l" x1="-48.697" x2="10.335" y1="604.625" y2="604.625" gradientTransform="matrix(8 0 0 -8 399 4941)" gradientUnits="userSpaceOnUse"><stop offset="0" style="stop-color:#4761AC" stop-color="#4761ac"></stop><stop offset="1" style="stop-color:#54C2EF" stop-color="#54c2ef"></stop></linearGradient><path d="M144 136h48a8 8 0 0 0 8-8V80a8 8 0 0 0-8-8h-48a8 8 0 0 0-8 8v48a8 8 0 0 0 8 8zm8-48h32v32h-32V88z" style="fill:url(#l);" fill=""></path></g></svg>