<svg xmlns="http://www.w3.org/2000/svg" xmlns:xlink="http://www.w3.org/1999/xlink" width="55" height="55" x="0" y="0" viewBox="0 0 682.667 682.667" style="enable-background:new 0 0 512 512" xml:space="preserve" class=""><g><defs><clipPath id="a" clipPathUnits="userSpaceOnUse"><path d="M0 512h512V0H0Z" fill="#000000" opacity="1" data-original="#000000"></path></clipPath></defs><g clip-path="url(#a)" transform="matrix(1.33333 0 0 -1.33333 0 682.667)"><path d="m0 0-33.285 60.938h-216.959c-11.911 0-21.567-9.655-21.567-21.566v-385.608c0-11.911 9.656-21.567 21.567-21.567H6.087c11.911 0 21.566 9.656 21.566 21.567v1.469H43.5v316.42z" style="fill-opacity:1;fill-rule:nonzero;stroke:none" transform="translate(448.5 438.1)" fill="#60b8fe" data-original="#60b8fe" class=""></path><path d="M0 0Z" style="fill-opacity:1;fill-rule:nonzero;stroke:none" transform="translate(504.5 409.753)" fill="#60b8fe" data-original="#60b8fe" class=""></path><path d="M0 0v-328.216c0-11.911-9.655-21.566-21.566-21.566H6.78c11.911 0 21.567 9.655 21.567 21.566v317.89z" style="fill-opacity:1;fill-rule:nonzero;stroke:none" transform="translate(476.153 420.08)" fill="#27a5fe" data-original="#27a5fe"></path><path d="M0 0h67.719l-89.285 89.285V21.566C-21.566 9.655-11.911 0 0 0" style="fill-opacity:1;fill-rule:nonzero;stroke:none" transform="translate(436.781 409.753)" fill="#004281" data-original="#004281"></path><path d="M0 0" style="fill-opacity:1;fill-rule:nonzero;stroke:none" transform="translate(331.627 22.47)" fill="#eaf6ff" data-original="#eaf6ff" class=""></path><path d="M0 0c11.911 0 21.566 9.655 21.566 21.566v.472h13.537v317.418l-44.5 33.082-29.975 56.203h-216.959c-11.911 0-21.566-9.655-21.566-21.566V21.566C-277.897 9.655-268.242 0-256.331 0Z" style="fill-opacity:1;fill-rule:nonzero;stroke:none" transform="translate(285.397 12.962)" fill="#eaf6ff" data-original="#eaf6ff" class=""></path><path d="M0 0v-346.236c0-11.911-9.655-21.567-21.566-21.567H6.78c11.911 0 21.567 9.656 21.567 21.567v317.889z" style="fill-opacity:1;fill-rule:nonzero;stroke:none" transform="translate(306.964 380.765)" fill="#d8ecfe" data-original="#d8ecfe" class=""></path><path d="M0 0h67.719l-89.285 89.286v-67.72C-21.566 9.656-11.911 0 0 0" style="fill-opacity:1;fill-rule:nonzero;stroke:none" transform="translate(267.592 352.418)" fill="#b3dafe" data-original="#b3dafe" class=""></path><path d="M0 0h67.719l-89.285 89.286v-67.72C-21.566 9.656-11.911 0 0 0Z" style="stroke-width:15;stroke-linecap:round;stroke-linejoin:round;stroke-miterlimit:10;stroke-dasharray:none;stroke-opacity:1" transform="translate(267.592 352.418)" fill="none" stroke="#000000" stroke-width="15" stroke-linecap="round" stroke-linejoin="round" stroke-miterlimit="10" stroke-dasharray="none" stroke-opacity="" data-original="#000000" class=""></path><path d="M0 0v-385.608c0-11.912 9.655-21.567 21.566-21.567h284.678c11.911 0 21.567 9.655 21.567 21.567v317.889l-89.286 89.286H21.566C9.655 21.567 0 11.911 0 0Z" style="stroke-width:15;stroke-linecap:round;stroke-linejoin:round;stroke-miterlimit:10;stroke-dasharray:54, 35, 826, 0;stroke-dashoffset:0;stroke-opacity:1" transform="translate(7.5 420.137)" fill="none" stroke="#000000" stroke-width="15" stroke-linecap="round" stroke-linejoin="round" stroke-miterlimit="10" stroke-dasharray="54, 35, 826, 0" stroke-dashoffset="0" stroke-opacity="" data-original="#000000" class=""></path><path d="M0 0h224.291" style="stroke-width:15;stroke-linecap:round;stroke-linejoin:round;stroke-miterlimit:10;stroke-dasharray:none;stroke-opacity:1" transform="translate(59.26 299.554)" fill="none" stroke="#000000" stroke-width="15" stroke-linecap="round" stroke-linejoin="round" stroke-miterlimit="10" stroke-dasharray="none" stroke-opacity="" data-original="#000000" class=""></path><path d="M0 0h224.291" style="stroke-width:15;stroke-linecap:round;stroke-linejoin:round;stroke-miterlimit:10;stroke-dasharray:none;stroke-opacity:1" transform="translate(59.26 242.043)" fill="none" stroke="#000000" stroke-width="15" stroke-linecap="round" stroke-linejoin="round" stroke-miterlimit="10" stroke-dasharray="none" stroke-opacity="" data-original="#000000" class=""></path><path d="M0 0h224.291" style="stroke-width:15;stroke-linecap:round;stroke-linejoin:round;stroke-miterlimit:10;stroke-dasharray:none;stroke-opacity:1" transform="translate(59.26 184.532)" fill="none" stroke="#000000" stroke-width="15" stroke-linecap="round" stroke-linejoin="round" stroke-miterlimit="10" stroke-dasharray="none" stroke-opacity="" data-original="#000000" class=""></path><path d="M0 0h224.291" style="stroke-width:15;stroke-linecap:round;stroke-linejoin:round;stroke-miterlimit:10;stroke-dasharray:none;stroke-opacity:1" transform="translate(59.26 127.022)" fill="none" stroke="#000000" stroke-width="15" stroke-linecap="round" stroke-linejoin="round" stroke-miterlimit="10" stroke-dasharray="none" stroke-opacity="" data-original="#000000" class=""></path><path d="M0 0h67.719l-89.285 89.285V21.566C-21.566 9.655-11.911 0 0 0Z" style="stroke-width:15;stroke-linecap:round;stroke-linejoin:round;stroke-miterlimit:10;stroke-dasharray:none;stroke-opacity:1" transform="translate(436.781 409.753)" fill="none" stroke="#000000" stroke-width="15" stroke-linecap="round" stroke-linejoin="round" stroke-miterlimit="10" stroke-dasharray="none" stroke-opacity="" data-original="#000000" class=""></path><path d="M0 0h121.899" style="stroke-width:15;stroke-linecap:round;stroke-linejoin:round;stroke-miterlimit:10;stroke-dasharray:none;stroke-opacity:1" transform="translate(330.84 357.063)" fill="none" stroke="#000000" stroke-width="15" stroke-linecap="round" stroke-linejoin="round" stroke-miterlimit="10" stroke-dasharray="none" stroke-opacity="" data-original="#000000" class=""></path><path d="M0 0h117.43" style="stroke-width:15;stroke-linecap:round;stroke-linejoin:round;stroke-miterlimit:10;stroke-dasharray:none;stroke-opacity:1" transform="translate(335.31 299.553)" fill="none" stroke="#000000" stroke-width="15" stroke-linecap="round" stroke-linejoin="round" stroke-miterlimit="10" stroke-dasharray="none" stroke-opacity="" data-original="#000000" class=""></path><path d="M0 0h117.43" style="stroke-width:15;stroke-linecap:round;stroke-linejoin:round;stroke-miterlimit:10;stroke-dasharray:none;stroke-opacity:1" transform="translate(335.31 242.042)" fill="none" stroke="#000000" stroke-width="15" stroke-linecap="round" stroke-linejoin="round" stroke-miterlimit="10" stroke-dasharray="none" stroke-opacity="" data-original="#000000" class=""></path><path d="M0 0h117.43" style="stroke-width:15;stroke-linecap:round;stroke-linejoin:round;stroke-miterlimit:10;stroke-dasharray:none;stroke-opacity:1" transform="translate(335.31 184.531)" fill="none" stroke="#000000" stroke-width="15" stroke-linecap="round" stroke-linejoin="round" stroke-miterlimit="10" stroke-dasharray="none" stroke-opacity="" data-original="#000000" class=""></path><path d="M0 0h-216.959c-11.911 0-21.566-9.655-21.566-21.566v-35.769h69.336l89.285-89.285v-282.121H67.719c11.911 0 21.566 9.655 21.566 21.566v317.89z" style="stroke-width:15;stroke-linecap:round;stroke-linejoin:round;stroke-miterlimit:10;stroke-dasharray:800, 35, 400, 0;stroke-dashoffset:0;stroke-opacity:1" transform="translate(415.215 499.038)" fill="none" stroke="#000000" stroke-width="15" stroke-linecap="round" stroke-linejoin="round" stroke-miterlimit="10" stroke-dasharray="800, 35, 400, 0" stroke-dashoffset="0" stroke-opacity="" data-original="#000000" class=""></path></g></g></svg>