<svg xmlns="http://www.w3.org/2000/svg" xmlns:xlink="http://www.w3.org/1999/xlink" width="55" height="55" x="0" y="0" viewBox="0 0 512 512" style="enable-background:new 0 0 512 512" xml:space="preserve" class=""><g><g fill-rule="evenodd" clip-rule="evenodd"><path fill="#e4e8eb" d="M166.753 16h45.891c2.754 0 5 2.246 5 5v31.476c0 2.754-2.246 5-5 5h-45.891a5.01 5.01 0 0 1-5-5V21c0-2.754 2.246-5 5-5zM21 16h101.781c2.754 0 5 2.246 5 5v31.476c0 2.754-2.246 5-5 5H21a5.01 5.01 0 0 1-5-5V21c0-2.754 2.246-5 5-5zm95.205 79.409H21a5.01 5.01 0 0 0-5 5v31.476c0 2.754 2.246 5 5 5h95.205c2.754 0 5-2.246 5-5v-31.476c0-2.754-2.246-5-5-5zm139.178 0h-95.206a5.01 5.01 0 0 0-5 5v31.476c0 2.754 2.246 5 5 5h95.206c2.754 0 5-2.246 5-5v-31.476c0-2.754-2.246-5-5-5zm89.864 0h-45.891a5.01 5.01 0 0 0-5 5v31.476c0 2.754 2.246 5 5 5h45.891c2.754 0 5-2.246 5-5v-31.476a5.01 5.01 0 0 0-5-5zm145.753 0H389.219a5.01 5.01 0 0 0-5 5v31.476c0 2.754 2.246 5 5 5H491c2.754 0 5-2.246 5-5v-31.476c0-2.754-2.246-5-5-5zM395.794 16H491c2.754 0 5 2.246 5 5v31.476c0 2.754-2.246 5-5 5h-95.206a5.01 5.01 0 0 1-5-5V21a5.01 5.01 0 0 1 5-5zm-139.178 0h95.206c2.754 0 5 2.246 5 5v31.476c0 2.754-2.246 5-5 5h-95.206a5.01 5.01 0 0 1-5-5V21a5.01 5.01 0 0 1 5-5z" opacity="1" data-original="#e4e8eb" class=""></path><path fill="#66d4f1" d="M45.448 234.991h421.104c16.22 0 29.448 13.229 29.448 29.448v35.337c0 16.219-13.228 29.448-29.448 29.448H45.448c-16.22 0-29.448-13.228-29.448-29.448v-35.337c0-16.219 13.228-29.448 29.448-29.448z" opacity="1" data-original="#66d4f1" class=""></path><path fill="#a9b0bb" d="m317.508 365.644 21.953-21.954 38.43 38.43-21.953 21.954z" opacity="1" data-original="#a9b0bb"></path><path fill="#d5a889" d="m351.703 394.589 16.778-16.779c5.542-5.542 14.61-5.542 20.153 0l77.102 77.102c5.542 5.542 5.542 14.61 0 20.152l-16.779 16.779c-5.542 5.542-14.61 5.542-20.152 0l-77.102-77.102c-5.542-5.542-5.542-14.61 0-20.152z" opacity="1" data-original="#d5a889"></path><circle cx="256" cy="282.108" r="111.108" fill="#e4e8eb" opacity="1" data-original="#e4e8eb" class=""></circle><circle cx="256" cy="282.108" r="80.26" fill="#f4f6f8" transform="rotate(-85.24 256.02 281.994)" opacity="1" data-original="#f4f6f8"></circle><path d="M256.024 359.785c-42.867 0-77.688-34.849-77.688-77.679 0-42.844 34.821-77.693 77.688-77.693 42.82 0 77.641 34.849 77.641 77.693 0 42.83-34.821 77.679-77.641 77.679zm0-169.371c-50.584 0-91.711 41.131-91.711 91.692 0 50.547 41.126 91.678 91.711 91.678 50.537 0 91.663-41.131 91.663-91.678 0-50.561-41.126-91.692-91.663-91.692zm232.97 109.361c0 12.371-10.07 22.441-22.445 22.441h-99.475a116.982 116.982 0 0 0 7.058-40.11c0-14.079-2.494-27.593-7.058-40.119h99.475c12.375 0 22.445 10.065 22.445 22.45zm-127.802 75.439-15.905-15.881a119.372 119.372 0 0 1-12.046 12.051l15.858 15.891zm17.364 5.421c1.882 0 3.717.701 5.129 2.122l77.123 77.095c2.823 2.833 2.823 7.43 0 10.253l-16.799 16.78c-2.823 2.828-7.435 2.828-10.258 0l-77.077-77.1c-2.823-2.828-2.823-7.43 0-10.249l16.752-16.78a7.241 7.241 0 0 1 5.13-2.121zM151.89 282.106c0 57.398 46.726 104.1 104.133 104.1s104.086-46.702 104.086-104.1c0-57.412-46.679-104.11-104.086-104.11-57.407.001-104.133 46.698-104.133 104.11zm-106.438 40.11c-12.376 0-22.445-10.07-22.445-22.441v-35.338c0-12.385 10.07-22.45 22.445-22.45h99.475c-4.564 12.526-7.011 26.04-7.011 40.119 0 14.069 2.447 27.579 7.011 40.11zm421.097-94.233H360.957c-19.669-37.978-59.337-63.99-104.933-63.99-45.644 0-85.311 26.012-104.98 63.99H45.452c-20.093 0-36.468 16.352-36.468 36.454v35.338c0 20.088 16.375 36.44 36.468 36.44h105.592c19.669 37.978 59.337 63.991 104.98 63.991 24.422 0 47.149-7.458 66.018-20.22l19.246 19.241c-1.882 7.068-.047 14.916 5.458 20.46l77.124 77.1a21.232 21.232 0 0 0 15.01 6.221c5.458 0 10.87-2.085 15.058-6.221l16.752-16.78c8.282-8.282 8.282-21.763 0-30.054l-77.123-77.095c-5.505-5.543-13.364-7.35-20.422-5.492l-19.246-19.241a114.026 114.026 0 0 0 7.059-11.91H466.55c20.092 0 36.468-16.352 36.468-36.44v-35.338c-.002-20.102-16.377-36.454-36.469-36.454zM162.195 102.407h91.193v27.466h-91.193zm-2.023 41.47h95.193c6.635 0 11.999-5.383 11.999-12.004v-31.466c0-6.621-5.364-12.004-11.999-12.004h-95.193c-6.588 0-11.999 5.383-11.999 12.004v31.466c0 6.621 5.411 12.004 11.999 12.004zm-137.166-41.47h91.193v27.466H23.006zm-2.023 41.47h95.24c6.588 0 11.999-5.383 11.999-12.004v-31.466c0-6.621-5.411-12.004-11.999-12.004h-95.24c-6.588 0-11.999 5.383-11.999 12.004v31.466c0 6.621 5.411 12.004 11.999 12.004zm468.011-14.004h-97.781v-27.466h97.781zm2.023-41.47h-101.78c-6.635 0-11.999 5.383-11.999 12.004v31.466c0 6.621 5.364 12.004 11.999 12.004h101.78c6.588 0 11.999-5.383 11.999-12.004v-31.466c0-6.62-5.411-12.004-11.999-12.004zM23.006 22.992h97.781v27.471H23.006zm-2.023 41.474h101.781c6.635 0 11.999-5.383 11.999-12.004v-31.47c0-6.616-5.364-11.999-11.999-11.999H20.983c-6.588 0-11.999 5.383-11.999 11.999v31.471c0 6.62 5.411 12.003 11.999 12.003zm468.011-14.003h-91.193V22.992h91.193zm2.023-41.47h-95.24c-6.588 0-11.999 5.383-11.999 11.999v31.471c0 6.62 5.411 12.004 11.999 12.004h95.24c6.588 0 11.999-5.383 11.999-12.004V20.992c0-6.616-5.411-11.999-11.999-11.999zm-147.753 120.88h-41.879v-27.466h41.879zm-43.903-41.47c-6.635 0-11.999 5.383-11.999 12.004v31.466c0 6.621 5.364 12.004 11.999 12.004h45.879c6.635 0 11.999-5.383 11.999-12.004v-31.466c0-6.621-5.364-12.004-11.999-12.004zm-40.749-65.411h91.193v27.471h-91.193zm-1.977 41.474h95.193c6.635 0 11.999-5.383 11.999-12.004v-31.47c0-6.616-5.365-11.999-11.999-11.999h-95.193c-6.635 0-11.999 5.383-11.999 11.999v31.471c0 6.62 5.365 12.003 11.999 12.003zm-87.899-41.474h41.926v27.471h-41.926zm-1.976 41.474h45.879c6.635 0 11.999-5.383 11.999-12.004v-31.47c0-6.616-5.364-11.999-11.999-11.999H166.76c-6.635 0-11.999 5.383-11.999 11.999v31.471c0 6.62 5.364 12.003 11.999 12.003z" fill="#000000" opacity="1" data-original="#000000" class=""></path></g></g></svg>